<mxfile host="app.diagrams.net" agent="Mozilla/5.0 (X11; Linux x86_64; rv:131.0) Gecko/20100101 Firefox/131.0" version="24.8.0">
  <diagram name="Page-1" id="0u3ZE7uqESYDxAMd9prz">
    <mxGraphModel dx="2750" dy="1580" grid="1" gridSize="10" guides="1" tooltips="1" connect="1" arrows="1" fold="1" page="1" pageScale="1" pageWidth="850" pageHeight="1100" math="0" shadow="0">
      <root>
        <mxCell id="0" />
        <mxCell id="1" parent="0" />
        <mxCell id="6C_B0T2juM4j-BZ9gB9E-7" style="edgeStyle=orthogonalEdgeStyle;rounded=0;orthogonalLoop=1;jettySize=auto;html=1;" parent="1" source="6C_B0T2juM4j-BZ9gB9E-1" target="6C_B0T2juM4j-BZ9gB9E-6" edge="1">
          <mxGeometry relative="1" as="geometry">
            <Array as="points">
              <mxPoint x="190" y="165" />
              <mxPoint x="190" y="165" />
            </Array>
          </mxGeometry>
        </mxCell>
        <mxCell id="6C_B0T2juM4j-BZ9gB9E-8" value="input" style="edgeLabel;html=1;align=center;verticalAlign=middle;resizable=0;points=[];" parent="6C_B0T2juM4j-BZ9gB9E-7" vertex="1" connectable="0">
          <mxGeometry x="-0.0317" y="1" relative="1" as="geometry">
            <mxPoint as="offset" />
          </mxGeometry>
        </mxCell>
        <mxCell id="6C_B0T2juM4j-BZ9gB9E-1" value="Professor" style="shape=umlActor;verticalLabelPosition=bottom;verticalAlign=top;html=1;outlineConnect=0;" parent="1" vertex="1">
          <mxGeometry x="60" y="135" width="55" height="110" as="geometry" />
        </mxCell>
        <mxCell id="6C_B0T2juM4j-BZ9gB9E-9" style="edgeStyle=orthogonalEdgeStyle;rounded=0;orthogonalLoop=1;jettySize=auto;html=1;" parent="1" source="6C_B0T2juM4j-BZ9gB9E-6" target="6C_B0T2juM4j-BZ9gB9E-1" edge="1">
          <mxGeometry relative="1" as="geometry">
            <Array as="points">
              <mxPoint x="190" y="205" />
              <mxPoint x="190" y="205" />
            </Array>
          </mxGeometry>
        </mxCell>
        <mxCell id="6C_B0T2juM4j-BZ9gB9E-10" value="outputs" style="edgeLabel;html=1;align=center;verticalAlign=middle;resizable=0;points=[];" parent="6C_B0T2juM4j-BZ9gB9E-9" vertex="1" connectable="0">
          <mxGeometry x="0.0648" relative="1" as="geometry">
            <mxPoint as="offset" />
          </mxGeometry>
        </mxCell>
        <mxCell id="6C_B0T2juM4j-BZ9gB9E-12" style="edgeStyle=orthogonalEdgeStyle;rounded=0;orthogonalLoop=1;jettySize=auto;html=1;" parent="1" source="6C_B0T2juM4j-BZ9gB9E-6" target="6C_B0T2juM4j-BZ9gB9E-11" edge="1">
          <mxGeometry relative="1" as="geometry">
            <Array as="points">
              <mxPoint x="450" y="70" />
              <mxPoint x="450" y="70" />
            </Array>
          </mxGeometry>
        </mxCell>
        <mxCell id="6C_B0T2juM4j-BZ9gB9E-14" value="register()" style="edgeLabel;html=1;align=center;verticalAlign=middle;resizable=0;points=[];" parent="6C_B0T2juM4j-BZ9gB9E-12" vertex="1" connectable="0">
          <mxGeometry x="-0.0242" y="-1" relative="1" as="geometry">
            <mxPoint as="offset" />
          </mxGeometry>
        </mxCell>
        <mxCell id="6C_B0T2juM4j-BZ9gB9E-15" style="edgeStyle=orthogonalEdgeStyle;rounded=0;orthogonalLoop=1;jettySize=auto;html=1;" parent="1" source="6C_B0T2juM4j-BZ9gB9E-6" target="6C_B0T2juM4j-BZ9gB9E-11" edge="1">
          <mxGeometry relative="1" as="geometry">
            <Array as="points">
              <mxPoint x="460" y="100" />
              <mxPoint x="460" y="100" />
            </Array>
          </mxGeometry>
        </mxCell>
        <mxCell id="6C_B0T2juM4j-BZ9gB9E-16" value="login()" style="edgeLabel;html=1;align=center;verticalAlign=middle;resizable=0;points=[];" parent="6C_B0T2juM4j-BZ9gB9E-15" vertex="1" connectable="0">
          <mxGeometry x="-0.2667" relative="1" as="geometry">
            <mxPoint x="28" as="offset" />
          </mxGeometry>
        </mxCell>
        <mxCell id="6C_B0T2juM4j-BZ9gB9E-19" style="edgeStyle=orthogonalEdgeStyle;rounded=0;orthogonalLoop=1;jettySize=auto;html=1;" parent="1" source="6C_B0T2juM4j-BZ9gB9E-6" target="6C_B0T2juM4j-BZ9gB9E-11" edge="1">
          <mxGeometry relative="1" as="geometry">
            <Array as="points">
              <mxPoint x="460" y="130" />
              <mxPoint x="460" y="130" />
            </Array>
          </mxGeometry>
        </mxCell>
        <mxCell id="6C_B0T2juM4j-BZ9gB9E-20" value="createLearningPath()" style="edgeLabel;html=1;align=center;verticalAlign=middle;resizable=0;points=[];" parent="6C_B0T2juM4j-BZ9gB9E-19" vertex="1" connectable="0">
          <mxGeometry x="-0.1541" relative="1" as="geometry">
            <mxPoint x="24" as="offset" />
          </mxGeometry>
        </mxCell>
        <mxCell id="6C_B0T2juM4j-BZ9gB9E-22" style="edgeStyle=orthogonalEdgeStyle;rounded=0;orthogonalLoop=1;jettySize=auto;html=1;" parent="1" source="6C_B0T2juM4j-BZ9gB9E-6" target="6C_B0T2juM4j-BZ9gB9E-11" edge="1">
          <mxGeometry relative="1" as="geometry">
            <Array as="points">
              <mxPoint x="450" y="160" />
              <mxPoint x="450" y="160" />
            </Array>
          </mxGeometry>
        </mxCell>
        <mxCell id="6C_B0T2juM4j-BZ9gB9E-23" value="addActivities()" style="edgeLabel;html=1;align=center;verticalAlign=middle;resizable=0;points=[];" parent="6C_B0T2juM4j-BZ9gB9E-22" vertex="1" connectable="0">
          <mxGeometry x="-0.016" y="-2" relative="1" as="geometry">
            <mxPoint as="offset" />
          </mxGeometry>
        </mxCell>
        <mxCell id="MeX4JR6SGzkrb79R6EGi-2" style="edgeStyle=orthogonalEdgeStyle;rounded=0;orthogonalLoop=1;jettySize=auto;html=1;" edge="1" parent="1" source="6C_B0T2juM4j-BZ9gB9E-6" target="6C_B0T2juM4j-BZ9gB9E-11">
          <mxGeometry relative="1" as="geometry">
            <Array as="points">
              <mxPoint x="460" y="190" />
              <mxPoint x="460" y="190" />
            </Array>
          </mxGeometry>
        </mxCell>
        <mxCell id="MeX4JR6SGzkrb79R6EGi-3" value="editLearningPath()" style="edgeLabel;html=1;align=center;verticalAlign=middle;resizable=0;points=[];" vertex="1" connectable="0" parent="MeX4JR6SGzkrb79R6EGi-2">
          <mxGeometry x="-0.1291" y="-2" relative="1" as="geometry">
            <mxPoint x="11" y="-2" as="offset" />
          </mxGeometry>
        </mxCell>
        <mxCell id="MeX4JR6SGzkrb79R6EGi-5" style="edgeStyle=orthogonalEdgeStyle;rounded=0;orthogonalLoop=1;jettySize=auto;html=1;" edge="1" parent="1" source="6C_B0T2juM4j-BZ9gB9E-6" target="6C_B0T2juM4j-BZ9gB9E-11">
          <mxGeometry relative="1" as="geometry">
            <Array as="points">
              <mxPoint x="450" y="220" />
              <mxPoint x="450" y="220" />
            </Array>
          </mxGeometry>
        </mxCell>
        <mxCell id="MeX4JR6SGzkrb79R6EGi-6" value="cloneActivities()" style="edgeLabel;html=1;align=center;verticalAlign=middle;resizable=0;points=[];" vertex="1" connectable="0" parent="MeX4JR6SGzkrb79R6EGi-5">
          <mxGeometry x="-0.0377" y="-1" relative="1" as="geometry">
            <mxPoint y="-1" as="offset" />
          </mxGeometry>
        </mxCell>
        <mxCell id="MeX4JR6SGzkrb79R6EGi-9" style="edgeStyle=orthogonalEdgeStyle;rounded=0;orthogonalLoop=1;jettySize=auto;html=1;" edge="1" parent="1" source="6C_B0T2juM4j-BZ9gB9E-6" target="6C_B0T2juM4j-BZ9gB9E-11">
          <mxGeometry relative="1" as="geometry">
            <Array as="points">
              <mxPoint x="460" y="280" />
              <mxPoint x="460" y="280" />
            </Array>
          </mxGeometry>
        </mxCell>
        <mxCell id="MeX4JR6SGzkrb79R6EGi-10" value="addReviews()" style="edgeLabel;html=1;align=center;verticalAlign=middle;resizable=0;points=[];" vertex="1" connectable="0" parent="MeX4JR6SGzkrb79R6EGi-9">
          <mxGeometry x="-0.144" relative="1" as="geometry">
            <mxPoint x="13" as="offset" />
          </mxGeometry>
        </mxCell>
        <mxCell id="MeX4JR6SGzkrb79R6EGi-11" style="edgeStyle=orthogonalEdgeStyle;rounded=0;orthogonalLoop=1;jettySize=auto;html=1;" edge="1" parent="1" source="6C_B0T2juM4j-BZ9gB9E-6" target="6C_B0T2juM4j-BZ9gB9E-11">
          <mxGeometry relative="1" as="geometry">
            <Array as="points">
              <mxPoint x="460" y="310" />
              <mxPoint x="460" y="310" />
            </Array>
          </mxGeometry>
        </mxCell>
        <mxCell id="MeX4JR6SGzkrb79R6EGi-12" value="gradeActivities()" style="edgeLabel;html=1;align=center;verticalAlign=middle;resizable=0;points=[];" vertex="1" connectable="0" parent="MeX4JR6SGzkrb79R6EGi-11">
          <mxGeometry x="-0.0086" relative="1" as="geometry">
            <mxPoint as="offset" />
          </mxGeometry>
        </mxCell>
        <mxCell id="6C_B0T2juM4j-BZ9gB9E-6" value="Interface" style="rounded=0;whiteSpace=wrap;html=1;fillColor=#d5e8d4;strokeColor=#82b366;" parent="1" vertex="1">
          <mxGeometry x="240" y="40" width="90" height="280" as="geometry" />
        </mxCell>
        <mxCell id="MeX4JR6SGzkrb79R6EGi-53" style="edgeStyle=orthogonalEdgeStyle;rounded=0;orthogonalLoop=1;jettySize=auto;html=1;" edge="1" parent="1" source="6C_B0T2juM4j-BZ9gB9E-11" target="6C_B0T2juM4j-BZ9gB9E-6">
          <mxGeometry relative="1" as="geometry">
            <Array as="points">
              <mxPoint x="450" y="250" />
              <mxPoint x="450" y="250" />
            </Array>
          </mxGeometry>
        </mxCell>
        <mxCell id="MeX4JR6SGzkrb79R6EGi-54" value="seeActivities()" style="edgeLabel;html=1;align=center;verticalAlign=middle;resizable=0;points=[];" vertex="1" connectable="0" parent="MeX4JR6SGzkrb79R6EGi-53">
          <mxGeometry x="0.0336" y="-2" relative="1" as="geometry">
            <mxPoint as="offset" />
          </mxGeometry>
        </mxCell>
        <mxCell id="6C_B0T2juM4j-BZ9gB9E-11" value="Recommendation System" style="rounded=0;whiteSpace=wrap;html=1;fillColor=#f8cecc;strokeColor=#b85450;" parent="1" vertex="1">
          <mxGeometry x="580" y="40" width="300" height="280" as="geometry" />
        </mxCell>
        <mxCell id="6C_B0T2juM4j-BZ9gB9E-17" value="&lt;div&gt;&amp;lt;&amp;lt;InformationHolder&amp;gt;&amp;gt;&lt;/div&gt;&lt;div&gt;&lt;br&gt;&lt;/div&gt;&lt;div&gt;LearningPaths and Activities&lt;br&gt;&lt;/div&gt;" style="rounded=0;whiteSpace=wrap;html=1;" parent="1" vertex="1">
          <mxGeometry x="1280" y="30" width="240" height="100" as="geometry" />
        </mxCell>
        <mxCell id="6C_B0T2juM4j-BZ9gB9E-18" value="&lt;div&gt;&amp;lt;&amp;lt;InformationHolder&amp;gt;&amp;gt;&lt;/div&gt;&lt;div&gt;&lt;br&gt;&lt;/div&gt;&lt;div&gt;Users&lt;br&gt;&lt;/div&gt;" style="rounded=0;whiteSpace=wrap;html=1;" parent="1" vertex="1">
          <mxGeometry x="1260" y="280" width="240" height="100" as="geometry" />
        </mxCell>
        <mxCell id="MeX4JR6SGzkrb79R6EGi-4" value="&lt;div&gt;&amp;lt;&amp;lt;InformationHolder&amp;gt;&amp;gt;&lt;/div&gt;&lt;div&gt;&lt;br&gt;&lt;/div&gt;&lt;div&gt;LearningPaths and Activities&lt;br&gt;&lt;/div&gt;" style="rounded=0;whiteSpace=wrap;html=1;" vertex="1" parent="1">
          <mxGeometry x="1260" y="160" width="240" height="100" as="geometry" />
        </mxCell>
        <mxCell id="MeX4JR6SGzkrb79R6EGi-13" style="edgeStyle=orthogonalEdgeStyle;rounded=0;orthogonalLoop=1;jettySize=auto;html=1;" edge="1" parent="1" source="MeX4JR6SGzkrb79R6EGi-15" target="MeX4JR6SGzkrb79R6EGi-36">
          <mxGeometry relative="1" as="geometry">
            <Array as="points">
              <mxPoint x="180" y="495" />
              <mxPoint x="180" y="495" />
            </Array>
          </mxGeometry>
        </mxCell>
        <mxCell id="MeX4JR6SGzkrb79R6EGi-14" value="input" style="edgeLabel;html=1;align=center;verticalAlign=middle;resizable=0;points=[];" vertex="1" connectable="0" parent="MeX4JR6SGzkrb79R6EGi-13">
          <mxGeometry x="-0.0317" y="1" relative="1" as="geometry">
            <mxPoint as="offset" />
          </mxGeometry>
        </mxCell>
        <mxCell id="MeX4JR6SGzkrb79R6EGi-15" value="Student" style="shape=umlActor;verticalLabelPosition=bottom;verticalAlign=top;html=1;outlineConnect=0;" vertex="1" parent="1">
          <mxGeometry x="50" y="465" width="55" height="110" as="geometry" />
        </mxCell>
        <mxCell id="MeX4JR6SGzkrb79R6EGi-16" style="edgeStyle=orthogonalEdgeStyle;rounded=0;orthogonalLoop=1;jettySize=auto;html=1;" edge="1" parent="1" source="MeX4JR6SGzkrb79R6EGi-36" target="MeX4JR6SGzkrb79R6EGi-15">
          <mxGeometry relative="1" as="geometry">
            <Array as="points">
              <mxPoint x="180" y="535" />
              <mxPoint x="180" y="535" />
            </Array>
          </mxGeometry>
        </mxCell>
        <mxCell id="MeX4JR6SGzkrb79R6EGi-17" value="outputs" style="edgeLabel;html=1;align=center;verticalAlign=middle;resizable=0;points=[];" vertex="1" connectable="0" parent="MeX4JR6SGzkrb79R6EGi-16">
          <mxGeometry x="0.0648" relative="1" as="geometry">
            <mxPoint as="offset" />
          </mxGeometry>
        </mxCell>
        <mxCell id="MeX4JR6SGzkrb79R6EGi-18" style="edgeStyle=orthogonalEdgeStyle;rounded=0;orthogonalLoop=1;jettySize=auto;html=1;" edge="1" parent="1" source="MeX4JR6SGzkrb79R6EGi-36" target="MeX4JR6SGzkrb79R6EGi-37">
          <mxGeometry relative="1" as="geometry">
            <Array as="points">
              <mxPoint x="440" y="400" />
              <mxPoint x="440" y="400" />
            </Array>
          </mxGeometry>
        </mxCell>
        <mxCell id="MeX4JR6SGzkrb79R6EGi-19" value="register()" style="edgeLabel;html=1;align=center;verticalAlign=middle;resizable=0;points=[];" vertex="1" connectable="0" parent="MeX4JR6SGzkrb79R6EGi-18">
          <mxGeometry x="-0.0242" y="-1" relative="1" as="geometry">
            <mxPoint as="offset" />
          </mxGeometry>
        </mxCell>
        <mxCell id="MeX4JR6SGzkrb79R6EGi-20" style="edgeStyle=orthogonalEdgeStyle;rounded=0;orthogonalLoop=1;jettySize=auto;html=1;" edge="1" parent="1" source="MeX4JR6SGzkrb79R6EGi-36" target="MeX4JR6SGzkrb79R6EGi-37">
          <mxGeometry relative="1" as="geometry">
            <Array as="points">
              <mxPoint x="450" y="430" />
              <mxPoint x="450" y="430" />
            </Array>
          </mxGeometry>
        </mxCell>
        <mxCell id="MeX4JR6SGzkrb79R6EGi-21" value="login()" style="edgeLabel;html=1;align=center;verticalAlign=middle;resizable=0;points=[];" vertex="1" connectable="0" parent="MeX4JR6SGzkrb79R6EGi-20">
          <mxGeometry x="-0.2667" relative="1" as="geometry">
            <mxPoint x="28" as="offset" />
          </mxGeometry>
        </mxCell>
        <mxCell id="MeX4JR6SGzkrb79R6EGi-32" style="edgeStyle=orthogonalEdgeStyle;rounded=0;orthogonalLoop=1;jettySize=auto;html=1;" edge="1" parent="1" source="MeX4JR6SGzkrb79R6EGi-36" target="MeX4JR6SGzkrb79R6EGi-37">
          <mxGeometry relative="1" as="geometry">
            <Array as="points">
              <mxPoint x="450" y="630" />
              <mxPoint x="450" y="630" />
            </Array>
          </mxGeometry>
        </mxCell>
        <mxCell id="MeX4JR6SGzkrb79R6EGi-33" value="addReviews()" style="edgeLabel;html=1;align=center;verticalAlign=middle;resizable=0;points=[];" vertex="1" connectable="0" parent="MeX4JR6SGzkrb79R6EGi-32">
          <mxGeometry x="-0.144" relative="1" as="geometry">
            <mxPoint x="13" as="offset" />
          </mxGeometry>
        </mxCell>
        <mxCell id="MeX4JR6SGzkrb79R6EGi-39" style="edgeStyle=orthogonalEdgeStyle;rounded=0;orthogonalLoop=1;jettySize=auto;html=1;" edge="1" parent="1" source="MeX4JR6SGzkrb79R6EGi-36" target="MeX4JR6SGzkrb79R6EGi-37">
          <mxGeometry relative="1" as="geometry">
            <Array as="points">
              <mxPoint x="450" y="460" />
              <mxPoint x="450" y="460" />
            </Array>
          </mxGeometry>
        </mxCell>
        <mxCell id="MeX4JR6SGzkrb79R6EGi-40" value="enrollLearningPaths()" style="edgeLabel;html=1;align=center;verticalAlign=middle;resizable=0;points=[];" vertex="1" connectable="0" parent="MeX4JR6SGzkrb79R6EGi-39">
          <mxGeometry x="-0.1219" y="-1" relative="1" as="geometry">
            <mxPoint x="10" as="offset" />
          </mxGeometry>
        </mxCell>
        <mxCell id="MeX4JR6SGzkrb79R6EGi-41" style="edgeStyle=orthogonalEdgeStyle;rounded=0;orthogonalLoop=1;jettySize=auto;html=1;" edge="1" parent="1" source="MeX4JR6SGzkrb79R6EGi-36" target="MeX4JR6SGzkrb79R6EGi-37">
          <mxGeometry relative="1" as="geometry">
            <Array as="points">
              <mxPoint x="450" y="490" />
              <mxPoint x="450" y="490" />
            </Array>
          </mxGeometry>
        </mxCell>
        <mxCell id="MeX4JR6SGzkrb79R6EGi-42" value="doActivities()" style="edgeLabel;html=1;align=center;verticalAlign=middle;resizable=0;points=[];" vertex="1" connectable="0" parent="MeX4JR6SGzkrb79R6EGi-41">
          <mxGeometry x="0.0076" y="-1" relative="1" as="geometry">
            <mxPoint as="offset" />
          </mxGeometry>
        </mxCell>
        <mxCell id="MeX4JR6SGzkrb79R6EGi-47" style="edgeStyle=orthogonalEdgeStyle;rounded=0;orthogonalLoop=1;jettySize=auto;html=1;" edge="1" parent="1" source="MeX4JR6SGzkrb79R6EGi-36" target="MeX4JR6SGzkrb79R6EGi-37">
          <mxGeometry relative="1" as="geometry">
            <Array as="points">
              <mxPoint x="450" y="580" />
              <mxPoint x="450" y="580" />
            </Array>
          </mxGeometry>
        </mxCell>
        <mxCell id="MeX4JR6SGzkrb79R6EGi-48" value="trackMyProgress()" style="edgeLabel;html=1;align=center;verticalAlign=middle;resizable=0;points=[];" vertex="1" connectable="0" parent="MeX4JR6SGzkrb79R6EGi-47">
          <mxGeometry x="-0.0098" y="3" relative="1" as="geometry">
            <mxPoint as="offset" />
          </mxGeometry>
        </mxCell>
        <mxCell id="MeX4JR6SGzkrb79R6EGi-51" style="edgeStyle=orthogonalEdgeStyle;rounded=0;orthogonalLoop=1;jettySize=auto;html=1;" edge="1" parent="1" source="MeX4JR6SGzkrb79R6EGi-36" target="MeX4JR6SGzkrb79R6EGi-37">
          <mxGeometry relative="1" as="geometry">
            <Array as="points">
              <mxPoint x="450" y="600" />
              <mxPoint x="450" y="600" />
            </Array>
          </mxGeometry>
        </mxCell>
        <mxCell id="MeX4JR6SGzkrb79R6EGi-52" value="registerDataActivities()" style="edgeLabel;html=1;align=center;verticalAlign=middle;resizable=0;points=[];" vertex="1" connectable="0" parent="MeX4JR6SGzkrb79R6EGi-51">
          <mxGeometry x="-0.0582" y="-1" relative="1" as="geometry">
            <mxPoint y="-1" as="offset" />
          </mxGeometry>
        </mxCell>
        <mxCell id="MeX4JR6SGzkrb79R6EGi-36" value="Interface" style="rounded=0;whiteSpace=wrap;html=1;fillColor=#d5e8d4;strokeColor=#82b366;" vertex="1" parent="1">
          <mxGeometry x="230" y="370" width="90" height="280" as="geometry" />
        </mxCell>
        <mxCell id="MeX4JR6SGzkrb79R6EGi-55" style="edgeStyle=orthogonalEdgeStyle;rounded=0;orthogonalLoop=1;jettySize=auto;html=1;" edge="1" parent="1" source="MeX4JR6SGzkrb79R6EGi-37" target="MeX4JR6SGzkrb79R6EGi-36">
          <mxGeometry relative="1" as="geometry">
            <Array as="points">
              <mxPoint x="450" y="520" />
              <mxPoint x="450" y="520" />
            </Array>
          </mxGeometry>
        </mxCell>
        <mxCell id="MeX4JR6SGzkrb79R6EGi-56" value="toExploreRecommendationSystem()" style="edgeLabel;html=1;align=center;verticalAlign=middle;resizable=0;points=[];" vertex="1" connectable="0" parent="MeX4JR6SGzkrb79R6EGi-55">
          <mxGeometry x="0.1093" relative="1" as="geometry">
            <mxPoint x="9" as="offset" />
          </mxGeometry>
        </mxCell>
        <mxCell id="MeX4JR6SGzkrb79R6EGi-57" style="edgeStyle=orthogonalEdgeStyle;rounded=0;orthogonalLoop=1;jettySize=auto;html=1;" edge="1" parent="1" source="MeX4JR6SGzkrb79R6EGi-37" target="MeX4JR6SGzkrb79R6EGi-36">
          <mxGeometry relative="1" as="geometry">
            <Array as="points">
              <mxPoint x="440" y="550" />
              <mxPoint x="440" y="550" />
            </Array>
          </mxGeometry>
        </mxCell>
        <mxCell id="MeX4JR6SGzkrb79R6EGi-58" value="getNotificationsToLimitDates()" style="edgeLabel;html=1;align=center;verticalAlign=middle;resizable=0;points=[];" vertex="1" connectable="0" parent="MeX4JR6SGzkrb79R6EGi-57">
          <mxGeometry x="0.024" y="3" relative="1" as="geometry">
            <mxPoint y="-3" as="offset" />
          </mxGeometry>
        </mxCell>
        <mxCell id="MeX4JR6SGzkrb79R6EGi-37" value="Recommendation System" style="rounded=0;whiteSpace=wrap;html=1;fillColor=#f8cecc;strokeColor=#b85450;" vertex="1" parent="1">
          <mxGeometry x="570" y="370" width="300" height="280" as="geometry" />
        </mxCell>
      </root>
    </mxGraphModel>
  </diagram>
</mxfile>
